<?xml version="1.0" encoding="UTF-8"?>
<svg version="1.1" xmlns="http://www.w3.org/2000/svg" width="512" height="512">
<path d="M0 0 C1.22996704 -0.00570007 2.45993408 -0.01140015 3.72717285 -0.01727295 C6.32575637 -0.02667591 8.92435157 -0.03323809 11.52294922 -0.03710938 C15.40224527 -0.0467104 19.28098649 -0.07773656 23.16015625 -0.109375 C75.91639397 -0.33402165 115.10397066 13.15729519 158.56469727 41.71801758 C177.06495882 54.1362294 177.06495882 54.1362294 197.96875 61.1484375 C199.74645815 61.50151094 201.52404115 61.85521491 203.30151367 62.20947266 C204.22660736 62.39149231 205.15170105 62.57351196 206.10482788 62.76104736 C267.81546738 74.98020771 267.81546738 74.98020771 290.96875 92.203125 C291.98195313 92.93982422 291.98195313 92.93982422 293.015625 93.69140625 C302.00749686 100.75360649 308.86223878 112.14613014 310.25500488 123.5461731 C310.63577528 128.90777365 310.63833671 134.26142358 310.56567383 139.63378906 C310.53113443 142.46259022 310.54512741 145.28829444 310.56445312 148.1171875 C310.55755839 149.94272143 310.54788938 151.76824745 310.53515625 153.59375 C310.54011612 154.42521545 310.54507599 155.25668091 310.55018616 156.11334229 C310.40629586 163.36614522 308.33297507 169.31351659 303.71875 174.953125 C294.96246988 182.11735419 286.73968442 185.34421661 275.40527344 185.61767578 C266.13832594 185.64838795 266.13832594 185.64838795 258.08203125 189.4921875 C256.17552992 192.30051981 256.17552992 192.30051981 254.625 195.3125 C249.7636167 203.79698972 238.92770495 208.31593758 229.96875 211.203125 C215.15674892 214.22716163 201.60624337 211.3685828 188.96875 203.203125 C188.23208855 202.52059977 187.49542709 201.83807453 186.73644257 201.13486671 C183.29924229 198.73583467 181.37703091 198.70141086 177.2130127 198.69760132 C176.54664937 198.6915112 175.88028604 198.68542108 175.19372988 198.67914641 C172.9679877 198.6635699 170.7433253 198.67632408 168.51757812 198.68896484 C166.91905543 198.68350304 165.32053796 198.67626104 163.72203064 198.66737366 C160.28326006 198.65204203 156.84478781 198.64923217 153.4059906 198.65613937 C147.96849911 198.6669254 142.53131942 198.6495447 137.09387207 198.62832642 C128.49390057 198.59806821 119.89402142 198.58637181 111.2940011 198.58274996 C95.892024 198.57610194 80.4901109 198.54710352 65.08821249 198.4976536 C59.6829548 198.48115335 54.27783141 198.47573934 48.87255096 198.47924399 C45.510431 198.47968104 42.14836175 198.47211655 38.78625679 198.46256828 C37.22739937 198.45988567 35.66853167 198.46063693 34.10967827 198.46507835 C31.98115171 198.47072345 29.85299239 198.46416865 27.7244873 198.4546814 C26.53357231 198.45434591 25.34265732 198.45401043 24.11565399 198.45366478 C20.239977 198.14510396 17.393695 197.13670966 14.15625 195.015625 C12.19912447 192.0284334 12.55000763 189.67270464 12.96875 186.203125 C15.74854897 181.6363124 15.74854897 181.6363124 18.72340012 180.58020115 C21.5562691 180.10445911 24.27060676 180.06172617 27.14434814 180.04490662 C28.41196991 180.0351178 29.67959167 180.02532898 30.98562622 180.01524353 C32.38787804 180.00933973 33.79013026 180.00352926 35.19238281 179.99780273 C36.67078931 179.98822128 38.14919308 179.97821104 39.62759399 179.96780396 C43.63960843 179.9407778 47.6516346 179.91975585 51.66368961 179.89980197 C55.85709329 179.8779283 60.05046089 179.85054636 64.24383545 179.82374573 C72.18394236 179.77383753 80.12406932 179.72889175 88.06421542 179.68572336 C97.10406325 179.63633499 106.14387488 179.58142279 115.18368769 179.52604377 C133.77867484 179.41225247 152.37369616 179.30540721 170.96875 179.203125 C170.64474213 178.09656052 170.32073425 176.98999603 169.98690796 175.84989929 C166.4829582 163.29967189 168.55928049 149.75305129 174.44140625 138.34765625 C181.49972115 126.25007161 192.26445813 117.79061502 205.8203125 114.06640625 C219.25176159 110.9258221 232.18092076 113.29684709 244.15625 119.890625 C256.38206414 127.69391795 263.44976279 138.30225013 266.96875 152.203125 C267.89412475 157.78406732 268.26607827 162.66719749 266.96875 168.203125 C278.36441328 167.88072841 278.36441328 167.88072841 288.96875 164.203125 C292.11874392 160.19799539 292.42341662 156.55703106 292.40234375 151.62890625 C292.4075856 150.9050322 292.41282745 150.18115814 292.41822815 149.43534851 C292.42463233 147.90653764 292.42333211 146.3776774 292.41479492 144.84887695 C292.40633782 142.5396043 292.43497717 140.23285341 292.46679688 137.92382812 C292.52041512 126.7952982 291.12541177 117.49575608 283.19140625 109.140625 C260.95461367 89.75670739 226.4736568 85.32658429 198.41992188 80.08056641 C186.36220857 77.78165791 175.71436025 74.2355696 165.15625 67.828125 C164.11235107 67.20562866 164.11235107 67.20562866 163.04736328 66.57055664 C155.69297734 62.13251001 148.53361659 57.39110169 141.35400391 52.67797852 C100.53732286 25.91266282 62.72198709 18.09927829 14.09375 17.953125 C12.59282806 17.9450885 12.59282806 17.9450885 11.06158447 17.93688965 C-25.43159725 17.78885035 -52.31051339 25.55360764 -82.19189453 46.75195312 C-115.50301404 70.23594479 -115.50301404 70.23594479 -129.73144531 73.2824707 C-130.94105927 73.5437249 -130.94105927 73.5437249 -132.17510986 73.81025696 C-133.09389923 74.00472664 -133.09389923 74.00472664 -134.03125 74.203125 C-133.96973457 81.98406183 -133.89241346 89.7646725 -133.79553509 97.5452404 C-133.75102183 101.15904334 -133.71172543 104.77273847 -133.68481445 108.38671875 C-133.65858922 111.88178963 -133.61805577 115.37644133 -133.56806374 118.87125015 C-133.54353631 120.83731792 -133.53340028 122.80354852 -133.52360535 124.76974487 C-133.36871536 134.32028295 -132.49391437 143.692461 -126.03125 151.203125 C-122.55218719 153.79481551 -119.1517741 155.82961697 -115.03125 157.203125 C-114.73992187 156.23632812 -114.44859375 155.26953125 -114.1484375 154.2734375 C-109.2487189 138.52217001 -102.18457988 127.31507625 -88.03125 118.203125 C-84.43743003 116.53570158 -80.84694668 115.25746224 -77.03125 114.203125 C-76.41378906 114.01234375 -75.79632813 113.8215625 -75.16015625 113.625 C-62.00831455 111.01876348 -48.25800703 114.11999754 -37.03125 121.203125 C-25.80567561 129.56331253 -18.62336511 140.38362371 -16.03125 154.203125 C-14.52396097 169.81988253 -18.14927875 183.5469831 -28.1484375 195.796875 C-37.14975847 205.59503422 -48.74553282 211.3538456 -62.01171875 212.44921875 C-76.85041942 213.03425713 -89.3952219 207.64642642 -100.21875 197.703125 C-105.11228168 192.63178727 -112.03125 183.57297949 -112.03125 176.203125 C-112.94003906 176.07357422 -112.94003906 176.07357422 -113.8671875 175.94140625 C-126.29502117 173.85735414 -136.22640763 167.87773766 -143.88671875 157.75 C-151.52971687 145.74766221 -152.186125 133.1217099 -152.19921875 119.26953125 C-152.20254715 118.03702133 -152.20587555 116.80451141 -152.20930481 115.53465271 C-152.21435121 112.93676118 -152.21671384 110.33886322 -152.21655273 107.7409668 C-152.21874079 103.78228021 -152.23692559 99.8238718 -152.25585938 95.86523438 C-152.25879351 93.33333428 -152.26077817 90.80143287 -152.26171875 88.26953125 C-152.26890427 87.09427383 -152.27608978 85.91901642 -152.28349304 84.70814514 C-152.23563537 67.36901981 -152.23563537 67.36901981 -145.84228516 60.65087891 C-142.63849118 58.08974406 -139.1032193 57.05580737 -135.21875 55.890625 C-118.88558769 50.39897726 -105.31042241 40.51491945 -91.26220703 30.75195312 C-62.0828009 10.49433084 -35.99668314 0.1331341 0 0 Z M-91.03125 143.203125 C-96.54444024 150.83287333 -98.00903437 159.68456251 -96.62109375 168.9375 C-94.33789572 177.74216783 -89.58043137 184.59416528 -82.25390625 189.9140625 C-74.15933758 194.60862781 -66.18110779 195.54968244 -57.03125 194.203125 C-47.77088679 191.41551281 -40.70739739 185.64280976 -35.9140625 177.24609375 C-31.92155119 168.51960474 -32.32472683 159.89093458 -34.9921875 150.87890625 C-38.09210467 142.89603684 -44.84466762 135.91515675 -52.65625 132.390625 C-67.55710408 127.1477319 -80.6580591 131.35338981 -91.03125 143.203125 Z M193.96875 141.203125 C193.22625 141.96625 192.48375 142.729375 191.71875 143.515625 C186.39533798 151.69086488 184.82183871 159.50216698 185.96875 169.203125 C187.93636519 177.81144145 193.08960384 184.84620834 200.34765625 189.83984375 C208.92288525 194.77024724 218.08433748 195.76434423 227.828125 193.5546875 C237.97050282 189.86941357 243.27350468 183.6509149 247.83984375 174.0703125 C251.18439612 165.57584384 250.52613216 158.22012606 247.2265625 149.87890625 C243.15566655 141.21877045 236.59600654 134.74167907 227.59375 131.328125 C214.65324876 127.62767345 203.13702154 131.66463822 193.96875 141.203125 Z " fill="#FCFDFD" transform="translate(177.03125,149.796875)"/>
<path d="M0 0 C1.73046875 1.66015625 1.73046875 1.66015625 3 4 C2.734375 6.80078125 2.734375 6.80078125 1.75 10.3125 C1.57178711 10.96605469 1.39357422 11.61960938 1.20996094 12.29296875 C0.49698902 14.86915889 -0.25175935 17.43382104 -1 20 C-1.55849242 21.94543201 -2.11695265 23.89087332 -2.67486572 25.83647156 C-5.08495373 34.233633 -7.53375071 42.61917335 -10 51 C-9.01080566 50.98428955 -8.02161133 50.9685791 -7.00244141 50.95239258 C-3.33862423 50.8981654 0.32515737 50.86367664 3.98925781 50.83520508 C5.57623251 50.82010186 7.16316537 50.79961777 8.75 50.77368164 C11.02875073 50.73736405 13.30695058 50.72028977 15.5859375 50.70703125 C16.29744965 50.69154739 17.00896179 50.67606354 17.74203491 50.66011047 C19.74365234 50.65942383 19.74365234 50.65942383 23 51 C25 54 25 54 24.99609375 57.1796875 C23.6979486 62.15845596 21.27705189 65.18711745 18.0625 69.125 C17.17461792 70.24793457 17.17461792 70.24793457 16.26879883 71.39355469 C15.07211991 72.90681618 13.87027618 74.41600891 12.66308594 75.92089844 C10.46529881 78.66845498 8.32532835 81.45550082 6.1875 84.25 C5.39472656 85.27996094 4.60195313 86.30992187 3.78515625 87.37109375 C0.9190952 91.10157337 -1.93731872 94.83938871 -4.79003906 98.58007812 C-6.17639531 100.39695156 -7.56505735 102.21206795 -8.95605469 104.02539062 C-12.19472099 108.2588011 -15.38641871 112.50832713 -18.44921875 116.87109375 C-18.97854004 117.61383545 -19.50786133 118.35657715 -20.05322266 119.12182617 C-21.0299747 120.4991066 -21.99053218 121.88807793 -22.93115234 123.2902832 C-25.32729734 126.6421442 -26.64859436 127.90619256 -30.6875 128.984375 C-34 129 -34 129 -36.4375 128 C-38.79499958 124.98240054 -38.24894334 122.7856718 -38 119 C-37.31749244 115.89156523 -36.37941627 112.88519436 -35.41015625 109.85546875 C-35.14617538 109.00447098 -34.88219452 108.15347321 -34.61021423 107.27668762 C-33.7701867 104.57731317 -32.91636245 101.88252594 -32.0625 99.1875 C-31.49197052 97.35769229 -30.92230014 95.52761649 -30.35351562 93.69726562 C-26.20689487 80.41378974 -26.20689487 80.41378974 -25 78 C-25.94842773 78.02094727 -26.89685547 78.04189453 -27.87402344 78.06347656 C-31.40016425 78.1317356 -34.92560099 78.18183929 -38.45214844 78.21972656 C-39.97700085 78.23981599 -41.50177648 78.26709316 -43.02636719 78.30175781 C-45.22089598 78.35039796 -47.41440469 78.37299396 -49.609375 78.390625 C-50.92905273 78.41157227 -52.24873047 78.43251953 -53.60839844 78.45410156 C-57 78 -57 78 -59.45532227 76.1484375 C-61 74 -61 74 -61.10546875 71.234375 C-59.61146363 66.86322221 -57.19253196 63.81945886 -54.3125 60.25 C-53.73161621 59.51048096 -53.15073242 58.77096191 -52.55224609 58.0090332 C-51.32508417 56.44786352 -50.09320886 54.89038867 -48.85693359 53.33642578 C-45.91973334 49.64078992 -43.02330785 45.91366022 -40.125 42.1875 C-39.55088379 41.45160645 -38.97676758 40.71571289 -38.38525391 39.95751953 C-33.92356568 34.22635566 -29.54138726 28.43837625 -25.1875 22.625 C-24.55755127 21.78493408 -23.92760254 20.94486816 -23.27856445 20.0793457 C-20.56129873 16.44926814 -17.85530118 12.81292493 -15.1953125 9.140625 C-14.78514893 8.57907715 -14.37498535 8.0175293 -13.95239258 7.43896484 C-12.90582727 6.00304765 -11.86846879 4.56043189 -10.83203125 3.1171875 C-7.53671004 -0.6910515 -4.8072192 -1.72566843 0 0 Z " fill="#5F99F2" transform="translate(274,192)"/>
</svg>
